<svg version="1.1" id="Layer_1" xmlns="http://www.w3.org/2000/svg" xmlns:xlink="http://www.w3.org/1999/xlink" x="0px" y="0px"
	 width="100%" viewBox="0 0 496 496" enable-background="new 0 0 496 496" xml:space="preserve">
<path fill="#000000" opacity="1.000000" stroke="none" 
	d="
M372.403198,314.315063 
	C352.465912,349.657776 323.292664,373.172546 284.265991,382.526184 
	C242.476532,392.541901 203.259155,385.285095 168.356125,359.241272 
	C136.796295,335.692047 118.483910,303.999023 113.968330,265.108032 
	C105.834999,195.058609 149.981903,135.637878 209.368195,117.459618 
	C287.144165,93.652260 366.022827,139.393051 384.660583,216.174286 
	C392.895172,250.098114 388.792847,282.888489 372.403198,314.315063 
M339.029968,342.532013 
	C369.628418,312.524261 383.380432,276.209747 378.475342,233.561310 
	C374.732971,201.022308 360.408203,173.623718 335.355896,152.129105 
	C301.724121,123.273392 262.906097,113.972710 220.219376,124.080910 
	C154.097626,139.738525 112.662575,204.317657 124.191895,271.313721 
	C135.627670,337.766266 197.933502,383.892273 263.420624,376.879639 
	C292.214111,373.796295 317.222809,362.594482 339.029968,342.532013 
z"/>
<path fill="#000000" opacity="1.000000" stroke="none" 
	d="
M289.401978,175.436340 
	C298.746094,178.556808 305.392822,183.054047 304.700439,194.194183 
	C304.392639,199.146255 306.712067,204.160828 306.230896,209.380264 
	C303.276581,209.505585 303.438965,207.277634 303.060242,205.946426 
	C298.386108,189.515564 281.887695,177.573654 261.999878,176.271454 
	C223.882950,173.775726 205.938004,202.839325 204.260681,230.242981 
	C203.343704,245.224747 204.371307,259.850555 211.439270,273.509552 
	C229.056000,307.554230 270.817200,308.135254 293.021240,288.831573 
	C302.363342,280.709808 306.366608,269.587616 308.752777,257.759796 
	C309.253448,255.278152 309.092438,252.522614 311.015289,250.047562 
	C312.777069,251.491013 312.349731,253.235947 312.236816,254.724792 
	C311.645996,262.516693 311.503845,270.402710 310.104614,278.054626 
	C308.929779,284.479370 303.780579,288.898193 299.138367,293.145050 
	C286.482483,304.723145 271.023651,308.701111 254.370560,308.141602 
	C231.765930,307.382080 212.989655,298.681641 200.010208,279.535339 
	C190.448013,265.429901 187.998856,249.483795 188.714264,232.796570 
	C189.876648,205.683411 206.439865,182.179367 230.830414,173.852814 
	C248.741776,167.738129 266.812042,168.146942 284.813232,173.769196 
	C286.241943,174.215408 287.633026,174.781982 289.401978,175.436340 
z"/>
</svg>